<?xml version="1.0" encoding="UTF-8" standalone="no"?>
<svg
   xmlns:dc="http://purl.org/dc/elements/1.1/"
   xmlns:cc="http://creativecommons.org/ns#"
   xmlns:rdf="http://www.w3.org/1999/02/22-rdf-syntax-ns#"
   xmlns:svg="http://www.w3.org/2000/svg"
   xmlns="http://www.w3.org/2000/svg"
   xmlns:sodipodi="http://sodipodi.sourceforge.net/DTD/sodipodi-0.dtd"
   xmlns:inkscape="http://www.inkscape.org/namespaces/inkscape"
   id="emoji"
   viewBox="0 0 72 72"
   version="1.1"
   sodipodi:docname="logo.svg"
   inkscape:version="1.0.2-2 (e86c870879, 2021-01-15)">
  <metadata
     id="metadata28">
    <rdf:RDF>
      <cc:Work
         rdf:about="">
        <dc:format>image/svg+xml</dc:format>
        <dc:type
           rdf:resource="http://purl.org/dc/dcmitype/StillImage" />
        <dc:title />
      </cc:Work>
    </rdf:RDF>
  </metadata>
  <defs
     id="defs26" />
  <sodipodi:namedview
     pagecolor="#ffffff"
     bordercolor="#666666"
     borderopacity="1"
     objecttolerance="10"
     gridtolerance="10"
     guidetolerance="10"
     inkscape:pageopacity="0"
     inkscape:pageshadow="2"
     inkscape:window-width="1920"
     inkscape:window-height="1017"
     id="namedview24"
     showgrid="false"
     inkscape:zoom="1"
     inkscape:cx="31.448322"
     inkscape:cy="27.568031"
     inkscape:window-x="-8"
     inkscape:window-y="-8"
     inkscape:window-maximized="1"
     inkscape:current-layer="emoji"
     inkscape:document-rotation="0"
     inkscape:snap-bbox="true"
     inkscape:snap-bbox-midpoints="true"
     inkscape:snap-others="true"
     inkscape:snap-object-midpoints="true"
     inkscape:snap-center="true"
     inkscape:bbox-nodes="false"
     inkscape:snap-nodes="false"
     inkscape:snap-bbox-edge-midpoints="true"
     inkscape:snap-page="true" />
  <g
     id="color">
    <rect
       x="5"
       y="17"
       width="62"
       height="38"
       fill="#92D3F5"
       stroke="none"
       stroke-linecap="round"
       stroke-linejoin="round"
       stroke-miterlimit="10"
       stroke-width="2"
       id="rect2"
       style="fill:#ffedb8;fill-opacity:1" />
    <path
       fill="#B1CC33"
       stroke="none"
       stroke-linecap="round"
       stroke-linejoin="round"
       stroke-miterlimit="10"
       stroke-width="2"
       d="m 28.5,30.5 c -0.0417,0.5833 -1.667,2.5858 -2.0833,2.875 -0.8682,0.603 -1.2071,0.3266 -1.9635,0.9219 -0.4794,0.3773 -1.0785,0.7807 -1.8125,0.9219 C 22.2344,35.2969 22.4141,34.913 21.5,35.5 c -0.5092,0.327 -0.0571,0.6789 0,1 0.0768,0.4317 0.1342,0.1715 1,1 0.452,0.4326 0.4924,0.8181 1,1 0.3173,0.1137 0.5479,0.0514 1,0 0.9479,-0.1077 0.5264,0.8266 1,1 1.0892,0.3987 0.9965,1.8323 2,2 0.4053,0.0677 0.5508,-0.1443 1,0 0.4112,0.1322 0.8831,0.5008 1,1 0.1539,0.6575 -0.3718,1.2692 -1,2 -0.5081,0.5911 -0.6024,0.5 -1,1 -0.5312,0.668 -0.389,0.8636 -1,2 -0.6184,1.1502 -0.9584,1.3113 -1,2 -0.0174,0.288 -8e-4,0.9691 0,1 0.0175,0.6949 0.0562,0.7867 0,1 -0.1307,0.497 -1.14,0.9323 -1.5208,0.875 C 23.2296,52.2623 23.2431,49.672 23.2084,49.2708 23.138,48.4607 23.47,48.0078 23.5,47.5 c 0.1037,-1.7568 0.397,-2.3016 0,-3 -0.2533,-0.4456 -0.3871,-0.2493 -1,-1 -0.3461,-0.4239 -0.8704,-1.0816 -1,-2 -0.0817,-0.5785 0.089,-0.582 0,-1 -0.1652,-0.7754 -0.8085,-1.0257 -2,-2 -0.7351,-0.6011 -1.3871,-1.1342 -2,-2 -0.3185,-0.4499 -0.7692,-1.0865 -1,-2 -0.3038,-1.2024 0.1487,-1.3986 0,-3 -0.0335,-0.3607 -0.1795,-1.676 -1,-3 -0.3483,-0.5621 -0.5937,-0.9457 -1,-1 -0.7745,-0.1035 -1.1901,1.1152 -2,1 -0.484,-0.0689 -0.8581,-0.5785 -1,-1 -0.0379,-0.1126 -0.1763,-0.5437 0,-1 0.0977,-0.2529 0.3985,-0.5019 1,-1 0.6138,-0.5083 0.9223,-0.7672 1,-1 0.1463,-0.4386 -0.1174,-0.595 0,-1 0.2008,-0.693 1.2649,-1.2436 2,-1 0.4223,0.1399 0.3312,0.4078 1,1 0.3247,0.2875 1.0264,0.8266 2,1 0.4917,0.0876 0.7375,0.1313 1,0 0.6467,-0.3236 0.3375,-1.1808 1,-2 0.6094,-0.7535 1.5995,-0.929 2,-1 0.9901,-0.1755 1.1254,0.2006 2,0 0.9399,-0.2156 0.9128,-0.6796 2,-1 0.4761,-0.1403 1.3149,-0.3876 2,0 0.6168,0.3489 0.535,0.8878 1,1 0.649,0.1567 0.967,-0.855 2,-1 0.7887,-0.1107 1.7269,0.3212 2,1 0.1356,0.3369 0.0721,0.6473 0,1 -0.2177,1.0653 -0.7955,1.1298 -1,2 -0.2223,0.9456 0.2539,1.1749 0,2 -0.1667,0.5417 -0.5,0.375 -1.0312,0.8125 -0.2432,0.2002 -0.3021,0.5208 -0.9688,1.1875 -0.3333,0.3333 -0.6794,0.6544 -1,1 -0.7307,0.7876 -0.8473,0.8473 -1,1"
       id="path4"
       style="fill:#ecd2a4;fill-opacity:1" />
    <path
       fill="#B1CC33"
       stroke="none"
       stroke-linecap="round"
       stroke-linejoin="round"
       stroke-miterlimit="10"
       stroke-width="2"
       d="m 34.5,35.5 c -0.2327,-0.2965 -1.2282,-1.826 -1,-2 0.2819,-0.2149 0.7809,0.2076 1,0 0.1816,-0.1721 -0.1166,-0.5043 0,-1 0.1124,-0.4781 0.5564,-0.8775 1,-1 0.528,-0.1458 0.897,0.1447 1,0 0.1982,-0.2786 -1.2375,-1.2621 -1,-2 0.1473,-0.4577 0.8035,-0.4017 1,-1 0.1321,-0.402 -0.1271,-0.5401 0,-1 0.1285,-0.4649 0.5373,-0.8448 1,-1 0.1315,-0.0441 0.5717,-0.1918 1,0 0.5418,0.2426 0.4575,0.7571 1,1 0.3049,0.1365 0.6951,0.1365 1,0 0.5414,-0.2424 0.4828,-0.7669 1,-1 0.3427,-0.1544 0.5131,0.0106 1,0 1.1173,-0.0243 1.9392,-0.9311 2,-1 0.5035,-0.571 0.2483,-0.7995 1,-2 0.4014,-0.6411 0.6646,-0.8799 1,-1 0.0953,-0.0341 0.5557,-0.1989 1,0 0.5393,0.2415 0.4849,0.7637 1,1 0.2668,0.1224 0.4404,0.0553 1,0 0.0712,-0.007 0.7141,-0.0047 2,0 1.9053,0.0069 1.8204,0.0439 2,0 1.0108,-0.247 0.9913,-0.7535 2,-1 0.6976,-0.1705 0.6827,0.0772 2,0 1.1978,-0.0702 1.7747,-0.3081 2,0 0.0859,0.1175 0.021,0.1781 0,1 -0.0085,0.3348 0.2708,0.6502 0.276,1.0417 0.0115,0.8917 0.0431,0.8352 -0.0051,0.9583 -0.2075,0.5292 -0.3616,0.6588 -0.6042,1.1875 -0.0905,0.1972 -0.1193,0.2741 -0.0833,1.0208 0.0529,1.097 0.3557,0.8476 0.4167,1.7917 0.0475,0.7382 0.1251,0.8865 0,1 -0.3363,0.3052 -2.1732,-0.2637 -2.5833,-1.125 -0.4311,-0.9051 -0.1221,-1.6729 -0.4167,-1.875 -0.4045,-0.2775 -2.2332,1.1258 -2.5,2.0156 -0.0528,0.1761 -0.2842,0.4526 0.5781,1.2344 0.8716,0.7902 1.2485,1.0843 1.3281,1.1562 0.4844,0.4375 1.0081,1.028 0.5938,1.5938 -0.5568,0.7599 -1.6156,0.316 -2,1 -0.3447,0.6132 0.3857,1.1847 0,2 -0.1112,0.235 -0.4075,0.49 -1,1 -0.6594,0.5675 -0.9046,0.6509 -1,1 -0.1277,0.4673 0.1847,0.7829 0,1 -0.2369,0.2786 -0.9667,0.0125 -1,0 -1.2899,-0.4836 -1.342,-1.9702 -2,-2 -0.7889,-0.0357 -1.2216,2.0781 -2,2 -0.1748,-0.0175 -0.4498,-0.345 -1,-1 -0.5292,-0.6301 -0.6418,-0.8616 -1,-1 -0.4581,-0.1771 -0.8913,-0.0369 -1,0 -0.1805,0.0613 -0.5032,0.2216 -1,1 -0.7071,1.1079 -0.4384,1.3954 -1,2 -0.4762,0.5127 -0.858,0.509 -1,1 -0.0302,0.1043 -0.0201,0.4028 0,1 0.0207,0.6139 0.0304,0.9225 0,1 -0.2084,0.5314 -0.762,0.4707 -1,1 -0.1635,0.3635 0.0261,0.5513 0,1 -0.0602,1.034 -1.1898,2.148 -2,2 -0.322,-0.0588 -0.548,-0.3726 -1,-1 -0.4,-0.5552 -0.8285,-1.15 -1,-2 -0.1846,-0.9149 0.1535,-1.0103 0,-2 -0.0778,-0.5019 -0.2532,-1.6321 -1,-2 -0.7166,-0.353 -1.2454,0.3476 -2,0 -0.7025,-0.3236 -1.0231,-1.2894 -1,-2 0.0247,-0.7592 0.4439,-1.2926 1,-2 0.4356,-0.5543 0.6535,-0.8315 0.9999,-1"
       id="path6"
       style="fill:#ecd2a4;fill-opacity:1" />
    <path
       fill="#B1CC33"
       stroke="none"
       stroke-linecap="round"
       stroke-linejoin="round"
       stroke-miterlimit="10"
       stroke-width="2"
       d="m 54.5,44.5 c -1.1801,0.5793 -1.7441,0.4529 -2,1 -0.1985,0.4245 -0.0394,0.8859 0,1 0.2429,0.7039 0.925,0.9719 1,1 0.8638,0.3235 1.3389,-0.3545 2,0 0.5044,0.2705 0.4256,0.7713 1,1 0.3162,0.1259 0.5969,0.0764 1,0 0.6927,-0.1313 1.5826,-0.3001 2,-1 0.2991,-0.5014 0.1975,-1.0104 0,-2 -0.1533,-0.7682 -0.3549,-1.7781 -1,-2 -0.1257,-0.0432 -0.1378,-0.0117 -1,0 -0.7313,0.0099 -0.8063,-0.0117 -1,0 -0.7651,0.0462 -0.9044,0.4622 -2,1 z"
       id="path8"
       style="fill:#ecd2a4;fill-opacity:1" />
  </g>
  <g
     id="line">
    <rect
       x="5"
       y="17"
       width="62"
       height="38"
       fill="none"
       stroke="#000000"
       stroke-linecap="round"
       stroke-linejoin="round"
       stroke-miterlimit="10"
       stroke-width="2"
       id="rect14"
       style="stroke-width:1;stroke-miterlimit:10;stroke-dasharray:none" />
    <path
       fill="none"
       stroke="#000000"
       stroke-linecap="round"
       stroke-linejoin="round"
       stroke-miterlimit="10"
       stroke-width="2"
       d="m 28.5,30.5 c -0.0417,0.5833 -1.667,2.5858 -2.0833,2.875 -0.8682,0.603 -1.2071,0.3266 -1.9635,0.9219 -0.4794,0.3773 -1.0785,0.7807 -1.8125,0.9219 C 22.2344,35.2969 22.4141,34.913 21.5,35.5 c -0.5092,0.327 -0.0571,0.6789 0,1 0.0768,0.4317 0.1342,0.1715 1,1 0.452,0.4326 0.4924,0.8181 1,1 0.3173,0.1137 0.5479,0.0514 1,0 0.9479,-0.1077 0.5264,0.8266 1,1 1.0892,0.3987 0.9965,1.8323 2,2 0.4053,0.0677 0.5508,-0.1443 1,0 0.4112,0.1322 0.8831,0.5008 1,1 0.1539,0.6575 -0.3718,1.2692 -1,2 -0.5081,0.5911 -0.6024,0.5 -1,1 -0.5312,0.668 -0.389,0.8636 -1,2 -0.6184,1.1502 -0.9584,1.3113 -1,2 -0.0174,0.288 -8e-4,0.9691 0,1 0.0175,0.6949 0.0562,0.7867 0,1 -0.1307,0.497 -1.14,0.9323 -1.5208,0.875 C 23.2296,52.2623 23.2431,49.672 23.2084,49.2708 23.138,48.4607 23.47,48.0078 23.5,47.5 c 0.1037,-1.7568 0.397,-2.3016 0,-3 -0.2533,-0.4456 -0.3871,-0.2493 -1,-1 -0.3461,-0.4239 -0.8704,-1.0816 -1,-2 -0.0817,-0.5785 0.089,-0.582 0,-1 -0.1652,-0.7754 -0.8085,-1.0257 -2,-2 -0.7351,-0.6011 -1.3871,-1.1342 -2,-2 -0.3185,-0.4499 -0.7692,-1.0865 -1,-2 -0.3038,-1.2024 0.1487,-1.3986 0,-3 -0.0335,-0.3607 -0.1795,-1.676 -1,-3 -0.3483,-0.5621 -0.5937,-0.9457 -1,-1 -0.7745,-0.1035 -1.1901,1.1152 -2,1 -0.484,-0.0689 -0.8581,-0.5785 -1,-1 -0.0379,-0.1126 -0.1763,-0.5437 0,-1 0.0977,-0.2529 0.3985,-0.5019 1,-1 0.6138,-0.5083 0.9223,-0.7672 1,-1 0.1463,-0.4386 -0.1174,-0.595 0,-1 0.2008,-0.693 1.2649,-1.2436 2,-1 0.4223,0.1399 0.3312,0.4078 1,1 0.3247,0.2875 1.0264,0.8266 2,1 0.4917,0.0876 0.7375,0.1313 1,0 0.6467,-0.3236 0.3375,-1.1808 1,-2 0.6094,-0.7535 1.5995,-0.929 2,-1 0.9901,-0.1755 1.1254,0.2006 2,0 0.9399,-0.2156 0.9128,-0.6796 2,-1 0.4761,-0.1403 1.3149,-0.3876 2,0 0.6168,0.3489 0.535,0.8878 1,1 0.649,0.1567 0.967,-0.855 2,-1 0.7887,-0.1107 1.7269,0.3212 2,1 0.1356,0.3369 0.0721,0.6473 0,1 -0.2177,1.0653 -0.7955,1.1298 -1,2 -0.2223,0.9456 0.2539,1.1749 0,2 -0.1667,0.5417 -0.5,0.375 -1.0312,0.8125 -0.2432,0.2002 -0.3021,0.5208 -0.9688,1.1875 -0.3333,0.3333 -0.6794,0.6544 -1,1 -0.7307,0.7876 -0.8473,0.8473 -1,1"
       id="path16"
       style="stroke-width:1;stroke-miterlimit:10;stroke-dasharray:none" />
    <path
       fill="none"
       stroke="#000000"
       stroke-linecap="round"
       stroke-linejoin="round"
       stroke-miterlimit="10"
       stroke-width="2"
       d="m 34.5,35.5 c -0.2327,-0.2965 -1.2282,-1.826 -1,-2 0.2819,-0.2149 0.7809,0.2076 1,0 0.1816,-0.1721 -0.1166,-0.5043 0,-1 0.1124,-0.4781 0.5564,-0.8775 1,-1 0.528,-0.1458 0.897,0.1447 1,0 0.1982,-0.2786 -1.2375,-1.2621 -1,-2 0.1473,-0.4577 0.8035,-0.4017 1,-1 0.1321,-0.402 -0.1271,-0.5401 0,-1 0.1285,-0.4649 0.5373,-0.8448 1,-1 0.1315,-0.0441 0.5717,-0.1918 1,0 0.5418,0.2426 0.4575,0.7571 1,1 0.3049,0.1365 0.6951,0.1365 1,0 0.5414,-0.2424 0.4828,-0.7669 1,-1 0.3427,-0.1544 0.5131,0.0106 1,0 1.1173,-0.0243 1.9392,-0.9311 2,-1 0.5035,-0.571 0.2483,-0.7995 1,-2 0.4014,-0.6411 0.6646,-0.8799 1,-1 0.0953,-0.0341 0.5557,-0.1989 1,0 0.5393,0.2415 0.4849,0.7637 1,1 0.2668,0.1224 0.4404,0.0553 1,0 0.0712,-0.007 0.7141,-0.0047 2,0 1.9053,0.0069 1.8204,0.0439 2,0 1.0108,-0.247 0.9913,-0.7535 2,-1 0.6976,-0.1705 0.6827,0.0772 2,0 1.1978,-0.0702 1.7747,-0.3081 2,0 0.0859,0.1175 0.021,0.1781 0,1 -0.0085,0.3348 0.2708,0.6502 0.276,1.0417 0.0115,0.8917 0.0431,0.8352 -0.0051,0.9583 -0.2075,0.5292 -0.3616,0.6588 -0.6042,1.1875 -0.0905,0.1972 -0.1193,0.2741 -0.0833,1.0208 0.0529,1.097 0.3557,0.8476 0.4167,1.7917 0.0475,0.7382 0.1251,0.8865 0,1 -0.3363,0.3052 -2.1732,-0.2637 -2.5833,-1.125 -0.4311,-0.9051 -0.1221,-1.6729 -0.4167,-1.875 -0.4045,-0.2775 -2.2332,1.1258 -2.5,2.0156 -0.0528,0.1761 -0.2842,0.4526 0.5781,1.2344 0.8716,0.7902 1.2485,1.0843 1.3281,1.1562 0.4844,0.4375 1.0081,1.028 0.5938,1.5938 -0.5568,0.7599 -1.6156,0.316 -2,1 -0.3447,0.6132 0.3857,1.1847 0,2 -0.1112,0.235 -0.4075,0.49 -1,1 -0.6594,0.5675 -0.9046,0.6509 -1,1 -0.1277,0.4673 0.1847,0.7829 0,1 -0.2369,0.2786 -0.9667,0.0125 -1,0 -1.2899,-0.4836 -1.342,-1.9702 -2,-2 -0.7889,-0.0357 -1.2216,2.0781 -2,2 -0.1748,-0.0175 -0.4498,-0.345 -1,-1 -0.5292,-0.6301 -0.6418,-0.8616 -1,-1 -0.4581,-0.1771 -0.8913,-0.0369 -1,0 -0.1805,0.0613 -0.5032,0.2216 -1,1 -0.7071,1.1079 -0.4384,1.3954 -1,2 -0.4762,0.5127 -0.858,0.509 -1,1 -0.0302,0.1043 -0.0201,0.4028 0,1 0.0207,0.6139 0.0304,0.9225 0,1 -0.2084,0.5314 -0.762,0.4707 -1,1 -0.1635,0.3635 0.0261,0.5513 0,1 -0.0602,1.034 -1.1898,2.148 -2,2 -0.322,-0.0588 -0.548,-0.3726 -1,-1 -0.4,-0.5552 -0.8285,-1.15 -1,-2 -0.1846,-0.9149 0.1535,-1.0103 0,-2 -0.0778,-0.5019 -0.2532,-1.6321 -1,-2 -0.7166,-0.353 -1.2454,0.3476 -2,0 -0.7025,-0.3236 -1.0231,-1.2894 -1,-2 0.0247,-0.7592 0.4439,-1.2926 1,-2 0.4356,-0.5543 0.6535,-0.8315 0.9999,-1"
       id="path18"
       style="stroke-width:1;stroke-miterlimit:10;stroke-dasharray:none" />
    <path
       fill="none"
       stroke="#000000"
       stroke-linecap="round"
       stroke-linejoin="round"
       stroke-miterlimit="10"
       stroke-width="2"
       d="m 54.5,44.5 c -1.1801,0.5793 -1.7441,0.4529 -2,1 -0.1985,0.4245 -0.0394,0.8859 0,1 0.2429,0.7039 0.925,0.9719 1,1 0.8638,0.3235 1.3389,-0.3545 2,0 0.5044,0.2705 0.4256,0.7713 1,1 0.3162,0.1259 0.5969,0.0764 1,0 0.6927,-0.1313 1.5826,-0.3001 2,-1 0.2991,-0.5014 0.1975,-1.0104 0,-2 -0.1533,-0.7682 -0.3549,-1.7781 -1,-2 -0.1257,-0.0432 -0.1378,-0.0117 -1,0 -0.7313,0.0099 -0.8063,-0.0117 -1,0 -0.7651,0.0462 -0.9044,0.4622 -2,1 z"
       id="path20"
       style="stroke-width:1;stroke-miterlimit:10;stroke-dasharray:none" />
  </g>
  <g
     id="hair" />
  <g
     id="skin" />
  <g
     id="skin-shadow" />
  <g
     id="g894"
     transform="matrix(0.5,0,0,0.5,8.1808735e-5,33.961533)">
    <g
       id="color-6">
      <path
         fill="#ea5a47"
         d="m 51.7592,19.365 c -0.623,0.2558 -1.2909,0.3844 -1.9644,0.3781 -4.3286,0.0022 -8.078,1.8283 -12.3377,2.1357 -5.0235,0.3625 -9.3729,-1.7156 -14.2656,-2.062 -0.568,-0.037 -1.1264,-0.1647 -1.6541,-0.3781 -0.4062,0.1384 -0.8275,0.2274 -1.2549,0.2651 -8.8148,8.7879 -8.8367,23.0578 -0.0487,31.8727 8.788,8.8149 23.0578,8.8367 31.8727,0.0487 8.8149,-8.788 8.8367,-23.0578 0.0487,-31.8727 -0.1305,-0.1308 -0.2625,-0.26 -0.396,-0.3875 z"
         id="path2" />
      <path
         fill="#6a462f"
         d="m 57.7435,27.4528 c 2.0194,-0.5984 4.1984,-0.3024 5.985,0.813 0,0 0.9579,-6.6034 -8.62,-11.32 l 5.6,-1.3534 -6.43,-4.2878 c -1.8164,-0.4281 -3.7106,-0.5449 -5.943,-0.4239 V 16 c 0,0 -4,0 -5,-1 l 0.9712,-4.4568 C 38.4888,8.6781 33.1665,8.3444 28.45,10.6 L 28.3357,14 c 0,1 -4,2 -4,2 l -1.9561,-5.8942 c -2.5773,0 -4.179,0.6578 -4.179,0.6578 l -5.9226,4.8286 c 1.9768,-0.9884 6.4331,0.41 6.4331,0.41 0,0 -8.6206,0.9434 -10.5361,13.207 0,0 3.8313,-2.83 6.7047,-2.83 0,0 -10.536,3.7734 -6.7047,20.7538 0,0 1.9155,-4.7168 4.789,-5.66 0,0 -3.8313,8.49 5.7471,17.9237 0,0 1.5046,-4.3139 2.4624,-5.2572 0,0 1.3383,8.0873 7.0852,9.0306 0,0 -0.9272,-1.8866 0.9885,-4.7168 2.0318,4.1166 5.9841,6.9476 10.5356,7.5467 0,0 -1.6543,-6.9638 3.1349,-7.9071 0,0 1.6543,0.36 1.6543,4.1337 0,0 5.2644,-4.3139 5.2644,-8.0873 2.1524,0.4806 3.8333,2.1614 4.314,4.3138 0,0 4.551,-4.8542 3.5931,-16.1745 0,0 4.0695,-1.7492 6.9429,3.911 0,4e-4 2.6354,-10.2466 -6.9429,-18.7368 z M 58.3357,40 c -3,10 -11,18 -20,18 -9,0 -23,-5 -24,-15 -1,-10 -2,-14 5,-23 0,0 13,1 18,2 0,0 13,-4 16,-2 0,0 8,10 5,20 z"
         id="path4-9" />
      <path
         fill="#d22f27"
         d="M 28.9889,12.2111 C 26.5852,10.6086 25.7841,8.2049 26.5857,5 c -5.6086,1.6025 -4.8074,8.0123 -2.4037,12.0185 4.2466,0.8015 4.8069,-4.8074 4.8069,-4.8074 z"
         id="path6-7" />
      <path
         fill="#d22f27"
         d="M 47.1557,17.0185 C 49.5592,13.0123 50.3604,6.6025 44.7518,5 c 0.8012,3.2049 0,5.6086 -2.4037,7.2111 -3.6055,2.4038 0.5603,5.6089 4.8076,4.8074 z"
         id="path8-4" />
    </g>
    <g
       id="line-4">
      <line
         x1="49.210499"
         x2="41.566898"
         y1="24.646299"
         y2="26.898899"
         fill="none"
         stroke="#000000"
         stroke-linecap="round"
         stroke-linejoin="round"
         stroke-width="2"
         id="line11" />
      <path
         fill="none"
         stroke="#000000"
         stroke-linecap="round"
         stroke-linejoin="round"
         stroke-width="2"
         d="m 18.208,11.6386 c -4.9423,1.9768 -6.2023,4.3636 -6.2023,4.3636 0,0 3.8313,-0.9433 6.7048,0 0,0 -8.62,0.9434 -10.5361,13.207 0,0 3.8313,-2.83 6.7048,-2.83 0,0 -10.5361,3.7735 -6.7048,20.7538 0,0 1.9157,-4.7167 4.7892,-5.66 0,0 -3.8314,8.49 5.7469,17.9237 0,0 1.5047,-4.3138 2.4625,-5.2572 0,0 1.3383,8.0873 7.0853,9.0306 0,0 -0.9273,-1.8867 0.9883,-4.7167 2.032,4.1168 5.9846,6.9478 10.5363,7.5466 0,0 -1.6543,-6.9638 3.1348,-7.9071 0,0 1.6543,0.36 1.6543,4.1337 0,0 5.2644,-4.3139 5.2644,-8.0873 2.1524,0.4806 3.8333,2.1615 4.3139,4.3139 0,0 4.5511,-4.8543 3.5932,-16.1745 0,0 4.0694,-1.7493 6.9429,3.9109 0,0 2.6354,-10.2466 -6.9429,-18.7368 2.0194,-0.5984 4.1985,-0.3024 5.9851,0.813 0,0 0.9578,-6.6034 -8.62,-11.32 0,0 3.8313,-1.8867 5.747,-0.9434 0,0 -4.7318,-3.3282 -6.8869,-3.8459"
         id="path13" />
      <line
         x1="31.3034"
         x2="30.8127"
         y1="43.222801"
         y2="46.7047"
         fill="none"
         stroke="#000000"
         stroke-linecap="round"
         stroke-miterlimit="2"
         stroke-width="2"
         id="line15" />
      <line
         x1="40.696602"
         x2="41.187302"
         y1="43.222801"
         y2="46.7047"
         fill="none"
         stroke="#000000"
         stroke-linecap="round"
         stroke-miterlimit="2"
         stroke-width="2"
         id="line17" />
      <line
         x1="30.431101"
         x2="22.7875"
         y1="26.898899"
         y2="24.646299"
         fill="none"
         stroke="#000000"
         stroke-linecap="round"
         stroke-linejoin="round"
         stroke-width="2"
         id="line19" />
      <path
         fill="none"
         stroke="#000000"
         stroke-linecap="round"
         stroke-linejoin="round"
         stroke-width="2"
         d="m 31.7316,10.4305 c 2.6719,-0.8657 5.549,-0.8657 8.2209,0"
         id="path21" />
      <line
         x1="27.5987"
         x2="44.401299"
         y1="42.278702"
         y2="42.278702"
         fill="none"
         stroke="#000000"
         stroke-linecap="round"
         stroke-linejoin="round"
         stroke-width="2"
         id="line23" />
      <path
         fill="none"
         stroke="#000000"
         stroke-linecap="round"
         stroke-miterlimit="10"
         stroke-width="2"
         d="m 53.3796,20.8053 c 8.0928,9.599 6.8718,23.9409 -2.7272,32.0337 -9.599,8.0928 -23.9409,6.8718 -32.0337,-2.7272 -7.2418,-8.5896 -7.1228,-21.1812 0.2801,-29.6325"
         id="path25" />
      <path
         fill="none"
         stroke="#000000"
         stroke-linecap="round"
         stroke-linejoin="round"
         stroke-width="2"
         d="m 18.9034,20.4834 c 0,0 4.9777,-1.2939 9.1885,0.0507 2.5313,0.8443 5.1933,1.2283 7.86,1.1339"
         id="path27" />
      <path
         fill="none"
         stroke="#000000"
         stroke-linecap="round"
         stroke-linejoin="round"
         stroke-width="2"
         d="m 52.7543,20.4834 c 0,0 -4.9778,-1.2939 -9.1885,0.0507 -2.5313,0.8443 -5.1933,1.2283 -7.86,1.1339"
         id="path29" />
      <path
         fill="none"
         stroke="#000000"
         stroke-linecap="round"
         stroke-linejoin="round"
         stroke-width="2"
         d="M 28.9889,12.2111 C 26.5852,10.6086 25.7841,8.2049 26.5857,5 c -5.6086,1.6025 -4.8074,8.0123 -2.4037,12.0185 4.2466,0.8015 4.8069,-4.8074 4.8069,-4.8074 z"
         id="path31" />
      <path
         fill="none"
         stroke="#000000"
         stroke-linecap="round"
         stroke-linejoin="round"
         stroke-width="2"
         d="M 47.1557,17.0185 C 49.5592,13.0123 50.3604,6.6025 44.7518,5 c 0.8012,3.2049 0,5.6086 -2.4037,7.2111 -3.6055,2.4038 0.5603,5.6089 4.8076,4.8074 z"
         id="path33" />
      <path
         d="m 30,32 c 0,1.6568 -1.3448,3 -3,3 -1.6553,0 -3,-1.3433 -3,-3 0,-1.6552 1.3447,-3 3,-3 1.6552,0 3,1.3448 3,3"
         id="path35" />
      <path
         d="m 48,32 c 0,1.6568 -1.3447,3 -3,3 -1.6553,0 -3,-1.3433 -3,-3 0,-1.6552 1.3447,-3 3,-3 1.6553,0 3,1.3448 3,3"
         id="path37" />
    </g>
  </g>
  <g
     id="g866"
     transform="matrix(0.5,0,0,0.5,18.000082,2.7846211)">
    <g
       id="color-3">
      <path
         fill="#FFFFFF"
         d="m 41.1835,14.216 c -1.6784,-0.5099 -3.4229,-0.7694 -5.177,-0.77 h -0.036 c -1.2518,0.0041 -2.5,0.1334 -3.726,0.386 -4.3415,0.9348 -8.1984,3.4083 -10.859,6.964 -2.0244,2.6542 -3.3639,5.7662 -3.9,9.061 -1.0764,6.1694 0.6871,12.4953 4.8,17.218 l 0.133,0.149 c 1.055,1.19 2.5,2.82 2.5,4.554 l -0.022,4.988 c 0,0.5523 -0.4477,1 -1,1 v 0 c 2.2224,1.1344 4.5781,1.9863 7.012,2.536 3.8115,0.8585 7.7771,0.7502 11.536,-0.315 3.215,-15.177 2.366,-31.029 -1.261,-45.771 z"
         id="path2-4"
         style="fill:#58ff43;fill-opacity:1" />
      <path
         fill="#D0CFCE"
         d="m 48.8895,18.863 c -2.1471,-2.1598 -4.794,-3.7563 -7.706,-4.648 3.627,14.742 4.476,30.595 1.258,45.766 1.9461,-0.5441 3.8246,-1.3059 5.6,-2.271 -0.5501,0.0023 -1.0009,-0.436 -1.014,-0.986 l -0.069,-4.943 c 0,-1.65 1.4,-3.191 2.421,-4.317 0.145,-0.159 0.283,-0.311 0.407,-0.453 7.0513,-8.1923 6.6643,-20.4171 -0.891,-28.147 z"
         id="path4-1"
         style="fill:#00f100;fill-opacity:1" />
      <path
         fill="#3F3F3F"
         d="m 27.8635,36.364 c -2.4853,0 -4.5,2.0147 -4.5,4.5 0,2.4853 2.0147,4.5 4.5,4.5 2.4853,0 4.5,-2.0147 4.5,-4.5 0,-2.4853 -2.0147,-4.5 -4.5,-4.5 z"
         id="path6-5"
         style="fill:#005300;fill-opacity:1" />
      <path
         fill="#3F3F3F"
         d="m 44.2115,36.364 c -2.4853,0 -4.5,2.0147 -4.5,4.5 0,2.4853 2.0147,4.5 4.5,4.5 2.4853,0 4.5,-2.0147 4.5,-4.5 0,-2.4853 -2.0147,-4.5 -4.5,-4.5 z"
         id="path8-6"
         style="fill:#005300;fill-opacity:1" />
    </g>
    <g
       id="hair-3" />
    <g
       id="skin-5" />
    <g
       id="skin-shadow-4" />
    <g
       id="line-8">
      <path
         fill="none"
         stroke="#000000"
         stroke-linecap="round"
         stroke-linejoin="round"
         stroke-width="2"
         d="m 48.0235,56.664 -0.069,-4.944 c 0,-1.45 1.649,-3.035 2.58,-4.1 3.4344,-3.9474 5.3151,-9.0097 5.291,-14.242 0,-11.6 -8.894,-21.006 -19.856,-20.983 -1.3183,0.0041 -2.6329,0.1405 -3.924,0.407 -7.89,1.618 -14.177,8.457 -15.548,16.842 -1.1269,6.4665 0.7263,13.0961 5.043,18.041 0.917,1.037 2.382,2.62 2.382,4.04 l -0.022,4.983"
         id="path14" />
      <line
         x1="27.8645"
         x2="27.8645"
         y1="55.001999"
         y2="59.782001"
         fill="none"
         stroke="#000000"
         stroke-linecap="round"
         stroke-linejoin="round"
         stroke-width="2"
         id="line16" />
      <line
         x1="33.578499"
         x2="33.578499"
         y1="56.067001"
         y2="60.848"
         fill="none"
         stroke="#000000"
         stroke-linecap="round"
         stroke-linejoin="round"
         stroke-width="2"
         id="line18" />
      <line
         x1="44.212502"
         x2="44.212502"
         y1="55.001999"
         y2="59.782001"
         fill="none"
         stroke="#000000"
         stroke-linecap="round"
         stroke-linejoin="round"
         stroke-width="2"
         id="line20" />
      <line
         x1="39.0275"
         x2="39.0275"
         y1="56.067001"
         y2="60.848"
         fill="none"
         stroke="#000000"
         stroke-linecap="round"
         stroke-linejoin="round"
         stroke-width="2"
         id="line22" />
      <polyline
         fill="none"
         stroke="#000000"
         stroke-linecap="round"
         stroke-linejoin="round"
         stroke-width="2"
         points="33.0365,52.209 35.9685,46.36 39.4735,52.209"
         id="polyline24" />
      <circle
         cx="27.8645"
         cy="40.817001"
         r="5"
         fill="none"
         stroke="#000000"
         stroke-miterlimit="10"
         stroke-width="2"
         id="circle26" />
      <circle
         cx="44.212502"
         cy="40.817001"
         r="5"
         fill="none"
         stroke="#000000"
         stroke-miterlimit="10"
         stroke-width="2"
         id="circle28" />
    </g>
  </g>
  <g
     id="g877"
     transform="matrix(0.5,0,0,0.5,36.000082,33.961533)">
    <g
       id="color-1">
      <path
         fill="#D22F27"
         d="m 34,16.1123 v -2.5109 c 0,-1.3807 1.1193,-2.5 2.5,-2.5 v 0 c 1.3807,0 2.5,1.1193 2.5,2.5 v 2.5"
         id="path2-9"
         style="fill:#992bff;fill-opacity:1" />
      <path
         fill="#D0CFCE"
         d="m 13.5,41.1014 v 0 c -1.3807,0 -2.5,-1.1193 -2.5,-2.5 v -8 c 0,-1.3807 1.1193,-2.5 2.5,-2.5 v 0 c 1.3807,0 2.5,1.1193 2.5,2.5 v 8 c 0,1.3807 -1.1193,2.5 -2.5,2.5 z"
         id="path4-8"
         style="fill:#e2d077;fill-opacity:1" />
      <path
         fill="#D0CFCE"
         d="m 58.5,41.1014 v 0 c 1.3807,0 2.5,-1.1193 2.5,-2.5 v -8 c 0,-1.3807 -1.1193,-2.5 -2.5,-2.5 v 0 c -1.3807,0 -2.5,1.1193 -2.5,2.5 v 8 c 0,1.3807 1.1193,2.5 2.5,2.5 z"
         id="path6-4"
         style="fill:#e2d077;fill-opacity:1" />
      <path
         fill="#D0CFCE"
         d="M 47.4505,56.1123 H 24.5495 C 19.8473,56.1123 16,52.265 16,47.5628 v -22.901 c 0,-4.7022 3.8473,-8.5495 8.5495,-8.5495 h 22.901 c 4.7022,0 8.5495,3.8473 8.5495,8.5495 v 22.901 c 0,4.7021 -3.8473,8.5495 -8.5495,8.5495 z"
         id="path8-63"
         style="fill:#8fcfff;fill-opacity:1" />
      <path
         fill="#9B9B9A"
         d="M 35.4977,56.1115 H 48.7842 C 52.7529,56.1115 56,52.2642 56,47.562 V 24.661 c 0,-4.7022 -3.2471,-8.5495 -7.2158,-8.5495 h -2.3526"
         id="path10"
         style="fill:#4b9bff;fill-opacity:1" />
      <circle
         cx="44.834599"
         cy="29.002701"
         fill="#ffffff"
         id="ellipse12"
         r="2.8338001" />
      <circle
         cx="27.3342"
         cy="29.002199"
         fill="#ffffff"
         id="ellipse14"
         r="2.8338001" />
      <path
         fill="#ffffff"
         d="m 44.5,47.5005 h -17 c -2.2,0 -4,-1.8 -4,-4 v 0 c 0,-2.2 1.8,-4 4,-4 h 17 c 2.2,0 4,1.8 4,4 v 0 c 0,2.2 -1.8,4 -4,4 z"
         id="path16-8" />
    </g>
    <g
       id="line-9">
      <path
         fill="none"
         stroke="#000000"
         stroke-linecap="round"
         stroke-linejoin="round"
         stroke-miterlimit="2"
         stroke-width="2"
         d="M 34,16.0109 V 13.5 C 34,12.1193 35.1193,11 36.5,11 v 0 c 1.3807,0 2.5,1.1193 2.5,2.5 V 16"
         id="path22" />
      <path
         fill="none"
         stroke="#000000"
         stroke-linecap="round"
         stroke-linejoin="round"
         stroke-miterlimit="2"
         stroke-width="2"
         d="M 47.4505,56 H 24.5495 C 19.8473,56 16,52.1527 16,47.4505 V 24.5495 C 16,19.8473 19.8473,16 24.5495,16 h 22.901 C 52.1527,16 56,19.8473 56,24.5495 v 22.901 C 56,52.1527 52.1527,56 47.4505,56 Z"
         id="path24" />
      <circle
         cx="44.834599"
         cy="29.002199"
         fill="none"
         stroke="#000000"
         stroke-linecap="round"
         stroke-linejoin="round"
         stroke-miterlimit="2"
         stroke-width="2"
         id="ellipse26"
         r="2.8338001" />
      <circle
         cx="27.3342"
         cy="29.001699"
         fill="none"
         stroke="#000000"
         stroke-linecap="round"
         stroke-linejoin="round"
         stroke-miterlimit="2"
         stroke-width="2"
         id="ellipse28"
         r="2.8338001" />
      <path
         fill="none"
         stroke="#000000"
         stroke-miterlimit="2"
         stroke-width="2"
         d="m 44.5,47.5 h -17 c -2.2,0 -4,-1.8 -4,-4 v 0 c 0,-2.2 1.8,-4 4,-4 h 17 c 2.2,0 4,1.8 4,4 v 0 c 0,2.2 -1.8,4 -4,4 z"
         id="path30" />
      <path
         fill="none"
         stroke="#000000"
         stroke-linecap="round"
         stroke-linejoin="round"
         stroke-miterlimit="2"
         stroke-width="2"
         d="m 13.5,41 v 0 C 12.1193,41 11,39.8807 11,38.5 v -8 C 11,29.1193 12.1193,28 13.5,28 v 0 c 1.3807,0 2.5,1.1193 2.5,2.5 v 8 c 0,1.3807 -1.1193,2.5 -2.5,2.5 z"
         id="path32" />
      <path
         fill="none"
         stroke="#000000"
         stroke-linecap="round"
         stroke-linejoin="round"
         stroke-miterlimit="2"
         stroke-width="2"
         d="m 58.5,41 v 0 c 1.3807,0 2.5,-1.1193 2.5,-2.5 v -8 C 61,29.1193 59.8807,28 58.5,28 v 0 C 57.1193,28 56,29.1193 56,30.5 v 8 c 0,1.3807 1.1193,2.5 2.5,2.5 z"
         id="path34" />
      <line
         x1="28"
         x2="28"
         y1="40"
         y2="47"
         fill="none"
         stroke="#000000"
         stroke-linecap="round"
         stroke-linejoin="round"
         stroke-miterlimit="2"
         stroke-width="2"
         id="line36" />
      <line
         x1="33"
         x2="33"
         y1="40"
         y2="47"
         fill="none"
         stroke="#000000"
         stroke-linecap="round"
         stroke-linejoin="round"
         stroke-miterlimit="2"
         stroke-width="2"
         id="line38" />
      <line
         x1="38"
         x2="38"
         y1="40"
         y2="47"
         fill="none"
         stroke="#000000"
         stroke-linecap="round"
         stroke-linejoin="round"
         stroke-miterlimit="2"
         stroke-width="2"
         id="line40" />
      <line
         x1="43"
         x2="43"
         y1="40"
         y2="47"
         fill="none"
         stroke="#000000"
         stroke-linecap="round"
         stroke-linejoin="round"
         stroke-miterlimit="2"
         stroke-width="2"
         id="line42" />
    </g>
  </g>
</svg>
